name ./resultDataOpenSim/trcMotMarkerGrf/sub10/grf-02-08.mot
datacolumns 19
datarows 30
range 0.94400000 1.06000000
endheader

                time	     ground_force_vx	     ground_force_vy	     ground_force_vz	     ground_force_px	     ground_force_py	     ground_force_pz	   l_ground_force_vx	   l_ground_force_vy	   l_ground_force_vz	   l_ground_force_px	   l_ground_force_py	   l_ground_force_pz	     ground_torque_x	     ground_torque_y	     ground_torque_z	   l_ground_torque_x	   l_ground_torque_y	   l_ground_torque_z	
          0.94400000	          0.00000000	          0.00000000	          0.00000000	          0.00000000	          0.00000000	          0.00000000	        -11.89394521	        371.69136268	         35.27656994	          0.01808873	         -0.02500000	         -0.12131511	          0.00000000	          0.00000000	          0.00000000	          0.00000000	         -0.94020763	          0.00000000	
          0.94800000	          0.00000000	          0.00000000	          0.00000000	          0.00000000	          0.00000000	          0.00000000	        -10.55497760	        370.50774348	         35.04383404	          0.01889467	         -0.02500000	         -0.12094892	          0.00000000	          0.00000000	          0.00000000	          0.00000000	         -0.97335365	          0.00000000	
          0.95200000	          0.00000000	          0.00000000	          0.00000000	          0.00000000	          0.00000000	          0.00000000	         -9.09725627	        369.89161856	         34.74037361	          0.01950066	         -0.02500000	         -0.12063639	          0.00000000	          0.00000000	          0.00000000	          0.00000000	         -1.02718116	          0.00000000	
          0.95600000	          0.00000000	          0.00000000	          0.00000000	          0.00000000	          0.00000000	          0.00000000	         -7.48049383	        369.97282938	         34.37753117	          0.01990228	         -0.02500000	         -0.12039278	          0.00000000	          0.00000000	          0.00000000	          0.00000000	         -1.10478563	          0.00000000	
          0.96000000	          0.00000000	          0.00000000	          0.00000000	          0.00000000	          0.00000000	          0.00000000	         -5.68963833	        370.89592746	         33.99563963	          0.02015567	         -0.02500000	         -0.12020729	          0.00000000	          0.00000000	          0.00000000	          0.00000000	         -1.20596587	          0.00000000	
          0.96400000	          0.00000000	          0.00000000	          0.00000000	          0.00000000	          0.00000000	          0.00000000	         -3.74888724	        372.80745064	         33.64989339	          0.02034583	         -0.02500000	         -0.12003841	          0.00000000	          0.00000000	          0.00000000	          0.00000000	         -1.32790616	          0.00000000	
          0.96800000	          0.00000000	          0.00000000	          0.00000000	          0.00000000	          0.00000000	          0.00000000	         -1.69845402	        375.82273443	         33.39160619	          0.02055217	         -0.02500000	         -0.11982942	          0.00000000	          0.00000000	          0.00000000	          0.00000000	         -1.46637723	          0.00000000	
          0.97200000	          0.00000000	          0.00000000	          0.00000000	          0.00000000	          0.00000000	          0.00000000	          0.43538304	        379.98500438	         33.25549549	          0.02084315	         -0.02500000	         -0.11953080	          0.00000000	          0.00000000	          0.00000000	          0.00000000	         -1.61698884	          0.00000000	
          0.97600000	          0.00000000	          0.00000000	          0.00000000	          0.00000000	          0.00000000	          0.00000000	          2.64899552	        385.23837029	         33.25656199	          0.02126519	         -0.02500000	         -0.11911803	          0.00000000	          0.00000000	          0.00000000	          0.00000000	         -1.77618850	          0.00000000	
          0.98000000	          0.00000000	          0.00000000	          0.00000000	          0.00000000	          0.00000000	          0.00000000	          4.96327262	        391.43322712	         33.38872988	          0.02181453	         -0.02500000	         -0.11862717	          0.00000000	          0.00000000	          0.00000000	          0.00000000	         -1.94181403	          0.00000000	
          0.98400000	          0.00000000	          0.00000000	          0.00000000	          0.00000000	          0.00000000	          0.00000000	          7.42610962	        398.38095721	         33.62318324	          0.02240749	         -0.02500000	         -0.11816922	          0.00000000	          0.00000000	          0.00000000	          0.00000000	         -2.11313558	          0.00000000	
          0.98800000	          0.00000000	          0.00000000	          0.00000000	          0.00000000	          0.00000000	          0.00000000	         10.09555113	        405.92839429	         33.92137275	          0.02290522	         -0.02500000	         -0.11787618	          0.00000000	          0.00000000	          0.00000000	          0.00000000	         -2.29053574	          0.00000000	
          0.99200000	          0.00000000	          0.00000000	          0.00000000	          0.00000000	          0.00000000	          0.00000000	         13.00871454	        414.02473978	         34.26228164	          0.02319682	         -0.02500000	         -0.11784298	          0.00000000	          0.00000000	          0.00000000	          0.00000000	         -2.47511003	          0.00000000	
          0.99600000	          0.00000000	          0.00000000	          0.00000000	          0.00000000	          0.00000000	          0.00000000	         16.16257466	        422.76265657	         34.65168191	          0.02327542	         -0.02500000	         -0.11804282	          0.00000000	          0.00000000	          0.00000000	          0.00000000	         -2.66838609	          0.00000000	
          1.00000000	          0.00000000	          0.00000000	          0.00000000	          0.00000000	          0.00000000	          0.00000000	         19.51286857	        432.32869649	         35.09362398	          0.02320275	         -0.02500000	         -0.11835369	          0.00000000	          0.00000000	          0.00000000	          0.00000000	         -2.87213720	          0.00000000	
          1.00400000	          0.00000000	          0.00000000	          0.00000000	          0.00000000	          0.00000000	          0.00000000	         22.99079988	        442.87956235	         35.55278701	          0.02305042	         -0.02500000	         -0.11864492	          0.00000000	          0.00000000	          0.00000000	          0.00000000	         -3.08811233	          0.00000000	
          1.00800000	          0.00000000	          0.00000000	          0.00000000	          0.00000000	          0.00000000	          0.00000000	         26.52786359	        454.47366003	         35.96204059	          0.02286726	         -0.02500000	         -0.11883703	          0.00000000	          0.00000000	          0.00000000	          0.00000000	         -3.31760268	          0.00000000	
          1.01200000	          0.00000000	          0.00000000	          0.00000000	          0.00000000	          0.00000000	          0.00000000	         30.06798143	        467.09416892	         36.27946107	          0.02271999	         -0.02500000	         -0.11887923	          0.00000000	          0.00000000	          0.00000000	          0.00000000	         -3.56102515	          0.00000000	
          1.01600000	          0.00000000	          0.00000000	          0.00000000	          0.00000000	          0.00000000	          0.00000000	         33.56957723	        480.68025365	         36.52832880	          0.02267137	         -0.02500000	         -0.11877044	          0.00000000	          0.00000000	          0.00000000	          0.00000000	         -3.81779239	          0.00000000	
          1.02000000	          0.00000000	          0.00000000	          0.00000000	          0.00000000	          0.00000000	          0.00000000	         37.01156588	        495.12989637	         36.77213037	          0.02274445	         -0.02500000	         -0.11856204	          0.00000000	          0.00000000	          0.00000000	          0.00000000	         -4.08652601	          0.00000000	
          1.02400000	          0.00000000	          0.00000000	          0.00000000	          0.00000000	          0.00000000	          0.00000000	         40.40147029	        510.31515477	         37.05836722	          0.02290957	         -0.02500000	         -0.11832593	          0.00000000	          0.00000000	          0.00000000	          0.00000000	         -4.36538687	          0.00000000	
          1.02800000	          0.00000000	          0.00000000	          0.00000000	          0.00000000	          0.00000000	          0.00000000	         43.77459632	        526.13371831	         37.40100116	          0.02311160	         -0.02500000	         -0.11812109	          0.00000000	          0.00000000	          0.00000000	          0.00000000	         -4.65221898	          0.00000000	
          1.03200000	          0.00000000	          0.00000000	          0.00000000	          0.00000000	          0.00000000	          0.00000000	         47.18173399	        542.54376912	         37.80932729	          0.02332494	         -0.02500000	         -0.11795397	          0.00000000	          0.00000000	          0.00000000	          0.00000000	         -4.94438340	          0.00000000	
          1.03600000	          0.00000000	          0.00000000	          0.00000000	          0.00000000	          0.00000000	          0.00000000	         50.67815924	        559.52989653	         38.30401686	          0.02356311	         -0.02500000	         -0.11779776	          0.00000000	          0.00000000	          0.00000000	          0.00000000	         -5.23845295	          0.00000000	
          1.04000000	          0.00000000	          0.00000000	          0.00000000	          0.00000000	          0.00000000	          0.00000000	         54.31985028	        577.05502165	         38.90007449	          0.02385579	         -0.02500000	         -0.11763458	          0.00000000	          0.00000000	          0.00000000	          0.00000000	         -5.53011299	          0.00000000	
          1.04400000	          0.00000000	          0.00000000	          0.00000000	          0.00000000	          0.00000000	          0.00000000	         58.15399684	        595.06144127	         39.59778973	          0.02421636	         -0.02500000	         -0.11746385	          0.00000000	          0.00000000	          0.00000000	          0.00000000	         -5.81450189	          0.00000000	
          1.04800000	          0.00000000	          0.00000000	          0.00000000	          0.00000000	          0.00000000	          0.00000000	         62.20392773	        613.49337362	         40.40131252	          0.02462366	         -0.02500000	         -0.11729388	          0.00000000	          0.00000000	          0.00000000	          0.00000000	         -6.08692375	          0.00000000	
          1.05200000	          0.00000000	          0.00000000	          0.00000000	          0.00000000	          0.00000000	          0.00000000	         66.47248173	        632.30166427	         41.33341460	          0.02503928	         -0.02500000	         -0.11712818	          0.00000000	          0.00000000	          0.00000000	          0.00000000	         -6.34364025	          0.00000000	
          1.05600000	          0.00000000	          0.00000000	          0.00000000	          0.00000000	          0.00000000	          0.00000000	         70.96692793	        651.42398649	         42.41834302	          0.02543843	         -0.02500000	         -0.11695651	          0.00000000	          0.00000000	          0.00000000	          0.00000000	         -6.58241686	          0.00000000	
          1.06000000	          0.00000000	          0.00000000	          0.00000000	          0.00000000	          0.00000000	          0.00000000	         75.71660743	        670.75450783	         43.65366079	          0.02582744	         -0.02500000	         -0.11675940	          0.00000000	          0.00000000	          0.00000000	          0.00000000	         -6.80260691	          0.00000000	
